<svg xmlns="http://www.w3.org/2000/svg" width="100" height="100" fill="none" class="t-icon t-icon-svg t-icon-g-topics" style="width:100px;height:100px;flex:100px 0 0;fill:transparent;stroke:transparent;"><rect width="98" height="98" x="1" y="1" fill="#fff" rx="49"></rect><rect width="98" height="98" x="1" y="1" stroke="#059A77" stroke-dasharray="6 4" stroke-width="2" rx="49"></rect><circle cx="50" cy="50" r="40" fill="#059A77"></circle><path fill="#fff" d="M69.097 58.7a8.01 8.01 0 0 0-6.113-7.772.74.74 0 0 0-.187-.29c-.01-.01-.994-.957-2.138-2.091a8.1 8.1 0 0 0 2.26-4.894l1.19-.975a2.73 2.73 0 0 0 .806-3.131 2.64 2.64 0 0 0-.787-1.05 2.98 2.98 0 0 0 .919-2.147v-1.322a2.97 2.97 0 0 0-2.606-2.944v-.722a2.97 2.97 0 0 0-2.963-2.962h-.103l-13.95 3.872v.572a2.99 2.99 0 0 0 1.266 2.428v2.672c-.854.206-1.585.806-1.913 1.612a2.715 2.715 0 0 0 .806 3.132l1.144.946a8.3 8.3 0 0 0 2.297 4.941c-1.04 1.04-2.1 2.09-2.1 2.09a.8.8 0 0 0-.169.263 7.944 7.944 0 0 0-6.178 7.781v4.397h-8.634v-11.41c0-4.058 2.438-5.146 3.525-5.427a3.28 3.28 0 0 0 2.972 1.912c1.8 0 3.272-1.462 3.272-3.272a3.269 3.269 0 0 0-6.534-.112 6.2 6.2 0 0 0-2.053.928c-2.222 1.566-2.682 4.106-2.682 5.972v11.4h-3.243v6.525h3.834v2.55h1.5v-2.55h35.062v2.55h1.5v-2.55h3.835v-6.525h-3.835zM46.69 41.647l-.15-.122a1.235 1.235 0 0 1-.365-1.415c.103-.263.3-.45.515-.581zm-8.25 1.49c.975 0 1.772.798 1.772 1.773s-.797 1.772-1.772 1.772a1.777 1.777 0 0 1-1.772-1.772c0-.975.797-1.772 1.772-1.772m24.834 9.45a6.5 6.5 0 0 1 4.322 6.123v3.881H63.36v-1.51h-1.5v1.51h-3.825l-.094-.3-1.172-6.431.347-.657.215.225c.15.15.347.235.544.235a.72.72 0 0 0 .478-.178l3.788-3.169c.375.037.76.14 1.134.272m-2.119-1.443-3.243 2.719-.197-.206a3 3 0 0 0-.31-.291c-.009 0-.009-.01-.018-.01a3.4 3.4 0 0 0-.629-.421 3.1 3.1 0 0 0 1.163-2.419v-.103a8.4 8.4 0 0 0 1.584-.872c.647.619 1.238 1.2 1.65 1.603m1.997-9.628-.197.16V39.51c.254.13.46.337.563.59a1.22 1.22 0 0 1-.366 1.416m-.806-7.922c.685.122 1.2.722 1.2 1.444v1.322c0 .778-.61 1.415-1.378 1.462h-.084c-.479 0-.938-.187-1.275-.525a1.8 1.8 0 0 1-.553-1.266l-.01-.318a3.01 3.01 0 0 0 2.1-2.119m-15.319-.216 12.544-3.468a1.46 1.46 0 0 1 1.368 1.462v1.472c0 .806-.656 1.462-1.462 1.462h-11.09c-.216 0-.432-.046-.629-.14a1.5 1.5 0 0 1-.731-.788m1.172 9.798c-.01-.122-.01-.254-.01-.385v-6.994c.066 0 .132.01.198.01h10.359l.01.253a3.3 3.3 0 0 0 1.002 2.306 3.3 3.3 0 0 0 1.707.89v3.629c0 .112 0 .215-.01.319v.047a6.65 6.65 0 0 1-4.509 5.934 6.8 6.8 0 0 1-2.166.347 6.5 6.5 0 0 1-2.072-.356 6.5 6.5 0 0 1-2.109-1.2 6.78 6.78 0 0 1-2.4-4.8m6.103 19.406h-.075l1.894-1.847.225 1.21-2.044.618zm-.131-7.603-.394-.75a2.42 2.42 0 0 1 2.157-.038l-.413.788zm1.031 1.5-1.05 1.05.188-1.05zm.45 1.678.15.806-2.325 2.27.197-1.098zm-.834-6.037a1.607 1.607 0 0 1-1.566-1.247 9 9 0 0 0 1.51.159h.065c.525 0 1.05-.047 1.556-.15a1.61 1.61 0 0 1-1.565 1.238m-4.64-2.579c.477.338.993.629 1.537.854v.112a3.1 3.1 0 0 0 .91 2.203c.102.103.205.188.318.272a4 4 0 0 0-.619.44c-.01 0-.01.01-.019.01-.047.047-.093.094-.15.14l-.31.31-3.271-2.747c.422-.422 1.022-1.012 1.603-1.594m-8.091 9.16c0-3.253 2.353-5.963 5.521-6.413l3.788 3.179c.3.243.731.234 1.003-.038l.197-.197.328.619-1.228 6.731h-3.91v-1.51h-1.5v1.51h-4.209v-3.881zm29.343 5.897v3.525H28.699v-3.525z"></path></svg>