<svg xmlns="http://www.w3.org/2000/svg" width="100" height="100" fill="none" class="t-icon t-icon-svg t-icon-g-experience" style="width:100px;height:100px;flex:100px 0 0;fill:transparent;stroke:transparent;"><rect width="98" height="98" x="1" y="1" fill="#fff" rx="49"></rect><rect width="98" height="98" x="1" y="1" stroke="#059A77" stroke-dasharray="6 4" stroke-width="2" rx="49"></rect><circle cx="50" cy="50" r="40" fill="#059A77"></circle><path fill="#fff" d="m67.561 43.436.42-.247a2.24 2.24 0 0 1 .975-.302 20.35 20.35 0 0 0-12.581-12.103v1.584A18.85 18.85 0 0 1 67.56 43.436M32.439 43.436a18.85 18.85 0 0 1 11.186-11.068v-1.584a20.35 20.35 0 0 0-12.581 12.103c.344.024.678.127.976.302zM67.561 56.565a18.85 18.85 0 0 1-11.186 11.068v1.584a20.35 20.35 0 0 0 12.581-12.103 2.24 2.24 0 0 1-.976-.302zM32.439 56.565l-.419.247a2.24 2.24 0 0 1-.976.302 20.34 20.34 0 0 0 12.581 12.103v-1.584A18.85 18.85 0 0 1 32.44 56.565M45.493 34.708l4.125 2.438a.76.76 0 0 0 .764 0l4.125-2.438a.75.75 0 0 0 .368-.646v-4.874a.75.75 0 0 0-.368-.646l-4.125-2.438a.75.75 0 0 0-.764 0l-4.125 2.438a.75.75 0 0 0-.368.645v4.875c0 .265.14.51.368.646m1.132-5.093L50 27.621l3.375 1.994v4.02L50 35.628l-3.375-1.995zM54.507 65.292l-4.125-2.437a.75.75 0 0 0-.763 0l-4.125 2.437a.75.75 0 0 0-.369.646v4.875c0 .265.14.51.369.645l4.125 2.438a.75.75 0 0 0 .763 0l4.125-2.438a.75.75 0 0 0 .368-.645v-4.875a.75.75 0 0 0-.368-.646m-1.132 5.093L50 72.379l-3.375-1.994v-4.02L50 64.373l3.375 1.994zM35.381 53.083a.75.75 0 0 0 .369-.645v-4.875a.75.75 0 0 0-.369-.646l-4.125-2.437a.75.75 0 0 0-.763 0l-4.125 2.437a.75.75 0 0 0-.368.646v4.875c0 .265.14.51.368.645l4.125 2.438a.75.75 0 0 0 .763 0zM27.5 52.01v-4.02l3.375-1.994 3.375 1.994v4.02l-3.375 1.994zM73.632 46.918l-4.126-2.438a.75.75 0 0 0-.763 0l-4.125 2.438a.75.75 0 0 0-.368.645v4.875c0 .265.14.51.368.646l4.125 2.438a.75.75 0 0 0 .764 0l4.124-2.439a.75.75 0 0 0 .369-.645v-4.875a.75.75 0 0 0-.368-.645M72.5 52.01l-3.375 1.995-3.375-1.995v-4.019l3.375-1.994L72.5 47.99zM54.125 44.375a4.125 4.125 0 1 0-8.25 0 4.125 4.125 0 0 0 8.25 0M50 47a2.626 2.626 0 1 1 0-5.251A2.626 2.626 0 0 1 50 47M53.414 49.893a.75.75 0 0 0 .174.762l1.048 1.074-.249 1.526a.75.75 0 0 0 1.104.777l1.26-.696 1.259.696a.75.75 0 0 0 1.103-.777l-.25-1.526 1.049-1.074a.75.75 0 0 0-.424-1.265l-1.418-.217-.641-1.367a.75.75 0 0 0-1.358 0l-.641 1.367-1.418.217a.75.75 0 0 0-.598.503m2.638.702a.75.75 0 0 0 .566-.423l.132-.282.132.282a.75.75 0 0 0 .566.423l.37.057-.292.3a.75.75 0 0 0-.204.644l.062.376-.271-.15a.75.75 0 0 0-.725 0l-.271.15.06-.375a.75.75 0 0 0-.203-.645l-.293-.3zM48.258 49.72l-.87 4.415a.75.75 0 0 0 .23.698l1.875 1.72a.75.75 0 0 0 1.014 0l1.875-1.72a.75.75 0 0 0 .229-.698l-.869-4.414a5.6 5.6 0 0 1-1.476.266l.791 4.025-1.057.97-1.058-.97.792-4.025a5.6 5.6 0 0 1-1.477-.266"></path><path fill="#fff" d="M58.25 57.898v-2.28a2.24 2.24 0 0 1-.966-.273l-.534-.296v2.849a.716.716 0 0 1-.702.727H43.952a.716.716 0 0 1-.702-.727v-4.859a3.38 3.38 0 0 1 3.341-3.414h1.407a5.6 5.6 0 0 1-2.123-1.44 4.894 4.894 0 0 0-4.124 4.854v4.859a2.22 2.22 0 0 0 2.201 2.227h12.096a2.217 2.217 0 0 0 2.202-2.227M52.136 30.578a.75.75 0 0 0-1.033-.239l-1.511.945-.504-.634a.75.75 0 0 0-1.175.932l.92 1.16c.24.295.66.368.985.17l2.08-1.3a.75.75 0 0 0 .238-1.034M49.087 67.4a.75.75 0 0 0-1.174.933l.92 1.16v-.001a.76.76 0 0 0 .985.17l2.08-1.3a.75.75 0 0 0-.796-1.272l-1.51.944zM31.978 48.714l-1.511.945-.504-.634a.75.75 0 1 0-1.175.933l.92 1.159a.76.76 0 0 0 .985.17l2.08-1.3a.75.75 0 0 0-.795-1.273M68.213 49.025a.75.75 0 0 0-1.175.932l.92 1.16c.24.294.66.367.986.17l2.079-1.3a.75.75 0 1 0-.795-1.273l-1.511.945z"></path></svg>