<svg xmlns="http://www.w3.org/2000/svg" width="100" height="100" fill="none" class="t-icon t-icon-svg t-icon-g-networking" style="width:100px;height:100px;flex:100px 0 0;fill:transparent;stroke:transparent;"><rect width="98" height="98" x="1" y="1" fill="#fff" rx="49"></rect><rect width="98" height="98" x="1" y="1" stroke="#059A77" stroke-dasharray="6 4" stroke-width="2" rx="49"></rect><circle cx="50" cy="50" r="40" fill="#059A77"></circle><path fill="#fff" fill-rule="evenodd" d="M51.801 30.2c2.834 0 5.16 2.301 5.16 5.13 0 2.01-1.185 3.76-2.88 4.606l1.5 5.37c.26-.033.526-.045.795-.045 1.648 0 3.153.624 4.29 1.65l2.235-1.815a4.46 4.46 0 0 1-.495-2.04c0-2.487 2.045-4.5 4.515-4.5s4.5 2.013 4.5 4.5c0 2.472-2.024 4.5-4.5 4.5a4.5 4.5 0 0 1-2.805-.99l-2.235 1.83c.574.96.9 2.075.9 3.27 0 3.525-2.872 6.39-6.405 6.39q-.68-.001-1.32-.135L53.6 61.85a4.26 4.26 0 0 1 2.085 3.645c0 2.338-1.933 4.26-4.275 4.26a4.276 4.276 0 0 1-4.26-4.26c0-2.339 1.92-4.245 4.26-4.245q.183 0 .36.015l1.485-4.006a6.5 6.5 0 0 1-2.205-2.025l-6.69 3.21a2.625 2.625 0 0 1-2.595 2.91c-1.43 0-2.61-1.18-2.61-2.61s1.18-2.61 2.61-2.61c.635 0 1.21.247 1.665.63l6.795-3.255a6.4 6.4 0 0 1-.255-2.49l-13.2-3.39c-.69 1.313-2.064 2.22-3.645 2.22-2.267 0-4.125-1.863-4.125-4.14a4.14 4.14 0 0 1 4.126-4.125c2.267 0 4.14 1.86 4.14 4.125v.075L50.45 49.16a6.48 6.48 0 0 1 3.27-3.33l-1.485-5.385c-.144.012-.288.03-.434.03-2.835 0-5.16-2.315-5.16-5.145s2.325-5.13 5.16-5.13m0 1.92c-1.8 0-3.24 1.423-3.24 3.21a3.22 3.22 0 0 0 3.24 3.225c1.8 0 3.24-1.438 3.24-3.225s-1.44-3.21-3.24-3.21m15.12 8.355c-1.442 0-2.595 1.132-2.595 2.58a2.586 2.586 0 0 0 2.595 2.58 2.573 2.573 0 0 0 2.58-2.58 2.554 2.554 0 0 0-2.58-2.58m-33.795 3.03a2.2 2.2 0 0 0-2.205 2.206c0 1.241.977 2.22 2.205 2.22 1.283.018 2.13-.653 2.22-2.22a2.21 2.21 0 0 0-2.22-2.205m23.25 3.676c-2.502 0-4.515 1.998-4.515 4.485s2.009 4.47 4.515 4.47c2.507 0 4.485-1.98 4.485-4.47a4.46 4.46 0 0 0-4.485-4.485m-14.61 10.875a.68.68 0 0 0-.69.69c0 .386.297.69.69.69.394 0 .69-.304.69-.69a.68.68 0 0 0-.69-.69m9.9 5.115c-.079-.008-.173 0-.255 0a2.32 2.32 0 0 0-2.34 2.325 2.33 2.33 0 0 0 2.34 2.34 2.343 2.343 0 0 0 2.355-2.34c0-1.213-.91-2.206-2.1-2.325" clip-rule="evenodd"></path></svg>