<svg xmlns="http://www.w3.org/2000/svg" width="100" height="100" fill="none" class="t-icon t-icon-svg t-icon-g-exclusivity" style="width:100px;height:100px;flex:100px 0 0;fill:transparent;stroke:transparent;"><rect width="98" height="98" x="1" y="1" fill="#fff" rx="49"></rect><rect width="98" height="98" x="1" y="1" stroke="#059A77" stroke-dasharray="6 4" stroke-width="2" rx="49"></rect><circle cx="50" cy="50" r="40" fill="#059A77"></circle><path fill="#fff" d="M52.049 55.798q-.743.148-1.5.187l1.38 8.697-1.927 1.736-1.947-1.83L49.518 56a10.5 10.5 0 0 1-1.5-.176l-1.5 8.925a.75.75 0 0 0 .225.67L49.488 68a.75.75 0 0 0 1.016 0l2.741-2.47a.75.75 0 0 0 .24-.675zM42.032 52.329c-5.509.641-9.656 5.321-9.656 11.171v9.75a.75.75 0 0 0 1.5 0V63.5c0-5.475 4.15-9.75 9.453-9.75h.188a10.6 10.6 0 0 1-1.485-1.421M57.97 52.329c-.452.521-.955.998-1.5 1.421h.188c5.317 0 9.468 4.29 9.468 9.75v9.75a.75.75 0 0 0 1.5 0V63.5c0-5.85-4.147-10.533-9.656-11.171M50.001 36.5a9 9 0 1 0 0 17.999 9 9 0 0 0 0-17.999m0 16.5a7.5 7.5 0 1 1 0-15 7.5 7.5 0 0 1 0 15M35.508 51.418a.75.75 0 0 0 1.084-.795l-.597-3.406 2.524-2.415a.75.75 0 0 0-.412-1.286l-3.48-.498-1.58-3.105a.75.75 0 0 0-1.338 0l-1.583 3.105-3.48.498a.75.75 0 0 0-.412 1.287l2.524 2.415-.597 3.404a.75.75 0 0 0 1.084.796l3.131-1.617zm-5.625-2.025.405-2.31a.75.75 0 0 0-.221-.672l-1.68-1.627 2.358-.337a.75.75 0 0 0 .563-.406l1.069-2.122 1.068 2.122c.11.22.32.37.563.406l2.359.337-1.7 1.624a.75.75 0 0 0-.22.67l.405 2.31-2.134-1.102a.75.75 0 0 0-.686 0zM73.964 44.03a.75.75 0 0 0-.608-.514l-3.48-.498-1.564-3.106a.751.751 0 0 0-1.339 0l-1.597 3.105-3.499.5v-.001a.75.75 0 0 0-.412 1.286l2.523 2.416-.596 3.405a.75.75 0 0 0 1.084.794l3.15-1.616 3.131 1.616a.75.75 0 0 0 1.084-.795l-.596-3.405 2.524-2.415a.75.75 0 0 0 .194-.772m-4.047 2.377a.75.75 0 0 0-.221.672l.405 2.31-2.134-1.103a.75.75 0 0 0-.686 0l-2.134 1.103.405-2.31a.75.75 0 0 0-.22-.672l-1.7-1.624 2.36-.337a.75.75 0 0 0 .562-.405l1.072-2.122 1.069 2.122c.11.219.32.37.562.405l2.36.338zM30.089 37.876a.75.75 0 0 0 1.039-.214l.1-.15h.001a.75.75 0 0 0-.197-1.051c-.167-.112-.372-.153-.57-.112a.75.75 0 0 0-.478.327l-.109.161a.75.75 0 0 0 .214 1.039M59.118 29.413l.322.146a.751.751 0 1 0 .627-1.362l-.345-.153a.75.75 0 0 0-.604 1.369M40.251 29.634a.75.75 0 0 0 .312-.068l.322-.146a.756.756 0 1 0-.634-1.373l-.345.154a.75.75 0 0 0 .345 1.433M53.001 27.695l.353.049h.109a.752.752 0 1 0 .108-1.5l-.375-.053a.756.756 0 1 0-.198 1.5zM43.311 28.471q.11 0 .214-.03l.341-.097a.75.75 0 1 0-.405-1.444l-.375.105a.75.75 0 0 0 .214 1.47zM49.807 27.5h.375a.75.75 0 0 0 0-1.5h-.375a.75.75 0 1 0 0 1.5M56.118 28.336l.341.098a.75.75 0 0 0 .428-1.437l-.375-.105a.75.75 0 0 0-.944.515.75.75 0 0 0 .539.93zM46.525 27.759h.113l.364-.06a.757.757 0 0 0-.2-1.5l-.374.052a.752.752 0 0 0 .108 1.5zM64.788 33.001a.75.75 0 1 0 .982-1.125l-.288-.244a.75.75 0 1 0-.964 1.148zM67.045 35.251a.75.75 0 0 0 1.125-.982l-.252-.285a.753.753 0 0 0-1.125 1zM61.938 30.901l.3.191a.75.75 0 0 0 .813-1.26l-.318-.202a.75.75 0 1 0-.792 1.275zM34.717 33.193c.18 0 .355-.066.49-.184l.27-.233a.752.752 0 1 0-.966-1.151l-.286.244a.75.75 0 0 0 .492 1.316zM32.377 35.521a.75.75 0 0 0 .566-.259l.236-.266a.753.753 0 1 0-1.125-1.001l-.25.281h-.001a.75.75 0 0 0 .574 1.245M37.349 31.22a.75.75 0 0 0 .405-.12l.296-.187a.754.754 0 0 0-.798-1.28l-.32.203a.75.75 0 0 0 .41 1.38zM68.876 37.662a.75.75 0 0 0 1.252-.821l-.109-.161a.75.75 0 0 0-1.245.832zM37.84 37.1a.75.75 0 1 0 1.069 1.05l.127-.131a.75.75 0 0 0-1.06-1.058zM58.562 35.941l.278.21a.75.75 0 1 0 .91-1.192l-.303-.229a.75.75 0 1 0-.885 1.211M43.495 32.998l-.35.165a.751.751 0 0 0 .657 1.35l.311-.147a.75.75 0 1 0-.622-1.365zM40.544 34.741l-.304.229a.751.751 0 0 0 .91 1.193l.282-.21a.75.75 0 0 0-.885-1.212zM55.877 34.355l.315.147a.75.75 0 0 0 .652-1.35l-.344-.162a.75.75 0 1 0-.623 1.365M52.926 33.406l.337.072a.75.75 0 1 0 .33-1.463l-.375-.079a.75.75 0 1 0-.292 1.47M50.185 31.625h-.375a.75.75 0 0 0 0 1.5h.375a.75.75 0 0 0 0-1.5M46.769 31.936l-.375.08a.75.75 0 1 0 .33 1.462l.337-.072a.75.75 0 0 0-.296-1.47zM61.09 38.15a.75.75 0 1 0 1.069-1.05l-.135-.139a.75.75 0 1 0-1.061 1.061zM50.377 72.5h-.75a.75.75 0 0 0 0 1.5h.75a.75.75 0 0 0 0-1.5M50.377 69.5h-.75a.75.75 0 0 0 0 1.5h.75a.75.75 0 0 0 0-1.5M39.126 69.5a.75.75 0 0 0-.75.75v3a.75.75 0 0 0 1.5 0v-3a.75.75 0 0 0-.75-.75M60.877 69.5a.75.75 0 0 0-.75.75v3a.75.75 0 0 0 1.5 0v-3a.75.75 0 0 0-.75-.75"></path></svg>