<svg xmlns="http://www.w3.org/2000/svg" width="100" height="100" fill="none" class="t-icon t-icon-svg t-icon-g-partnership" style="width:100px;height:100px;flex:100px 0 0;fill:transparent;stroke:transparent;"><rect width="98" height="98" x="1" y="1" fill="#fff" rx="49"></rect><rect width="98" height="98" x="1" y="1" stroke="#059A77" stroke-dasharray="6 4" stroke-width="2" rx="49"></rect><circle cx="50" cy="50" r="40" fill="#059A77"></circle><path fill="#fff" d="M71.495 49.34a21.79 21.79 0 0 0-16.833-19.51 6.79 6.79 0 0 0-9.685 0 21.79 21.79 0 0 0-16.832 19.51l-.546.946a3 3 0 0 0 .697 3.81c4.083 24.77 38.974 24.755 43.048 0a3 3 0 0 0 .698-3.81zM49.819 29.271a5.26 5.26 0 0 1 5.25 5.25c-.264 6.955-10.236 6.953-10.5 0a5.26 5.26 0 0 1 5.25-5.25m-6.14 2.464a6.746 6.746 0 1 0 12.281 0 20.32 20.32 0 0 1 13.326 13.778l-2.628-4.553a2.98 2.98 0 0 0-1.822-1.398c-2.165-.576-5.054 1.622-4.342 4.003-3.667 2.83-7.622-3.476-14.61 2.184-2-1.342-4.349-2.072-6.758-2.101a2.985 2.985 0 0 0-1.38-3.402 3.52 3.52 0 0 0-2.943-.684 2.98 2.98 0 0 0-1.822 1.398l-2.628 4.553a20.32 20.32 0 0 1 13.326-13.779m10.163 25.067c.004.003 2.851 2.853 2.856 2.855a1.5 1.5 0 0 1-2.12 2.121l-2.729-2.73a.75.75 0 0 0-1.06 1.064c.008.007 2.726 2.73 2.735 2.734a1.5 1.5 0 0 1-2.133 2.113c-.003-.004-1.054-1.053-1.056-1.057-.428-.397-.962-1.235-1.624-.725a2.973 2.973 0 0 0-2.755-4.517 2.993 2.993 0 0 0-4.916-2.501 3.004 3.004 0 0 0-5.015-1.382l-2.295 2.295a4.9 4.9 0 0 1-1.583-2.196c.55-.258 1.01-.68 1.313-1.206l4.903-8.493c2.232-.13 4.45.426 6.356 1.596-.475.45-.959.936-1.46 1.5a.75.75 0 0 0-.18.621c.423 2.445 2.75 4.703 6.325 2.798 3.65-1.825 5.451.082 9.18 4.568.529.671.577.76 1.683.962a1.495 1.495 0 0 1-2.506 1.377l-2.858-2.858a.75.75 0 0 0-1.06 1.06zm-16.167 4.81 4.243-4.242a1.5 1.5 0 0 1 2.121 2.121l-4.243 4.243a1.5 1.5 0 0 1-2.12-2.122m-.947-1.175a1.5 1.5 0 0 1-2.117-2.125l2.474-2.474a1.5 1.5 0 0 1 2.122 2.12c-.57.574-1.896 1.895-2.479 2.48m4.129 4.358 4.243-4.243a1.5 1.5 0 0 1 2.12 2.12l-4.241 4.244a1.5 1.5 0 0 1-2.122-2.121m7.425-1.062c.059-.06.103-.128.157-.191-.24.58.517 1.06.839 1.424a1.498 1.498 0 0 1-2.123 2.115l-1.11-1.11zM60.01 55.63c-3.552-4.285-6.31-7.833-11.277-5.278-2.046 1.114-3.602.438-4.09-1.373 7.88-8.674 11.019-.615 16.498-4.032l4.93 8.54.123.334c-2.824 2.573-5.501 2.013-6.185 1.809m-31.114-4.594 5.384-9.325a1.507 1.507 0 0 1 2.049-.549c.526.301 1.239.632 1.365 1.295.104.385.05.794-.15 1.138l-5.383 9.325a1.49 1.49 0 0 1-.912.7c-.633.218-1.285-.226-1.804-.536a1.503 1.503 0 0 1-.549-2.05zM49.82 71.272a20.27 20.27 0 0 1-19.842-16.24q.33.102.675.127a6.35 6.35 0 0 0 2.226 3.134 3.015 3.015 0 0 0 2.889 4.07 2.99 2.99 0 0 0 3.172 3.29 3.005 3.005 0 0 0 5.1 2.324l.945-.945 1.11 1.11a3.02 3.02 0 0 0 5.063-1.548 3.002 3.002 0 0 0 4.28-2.896 2.99 2.99 0 0 0 3.18-3.177 2.985 2.985 0 0 0 3.182-3.21 8.53 8.53 0 0 0 5.537-2.519 2.92 2.92 0 0 0 2.326.24 20.27 20.27 0 0 1-19.842 16.24m20.374-18.188-.666.385a1.507 1.507 0 0 1-2.05-.549l-5.383-9.325a1.51 1.51 0 0 1 .548-2.048l.668-.385a1.504 1.504 0 0 1 2.049.549l5.383 9.324a1.503 1.503 0 0 1-.548 2.05"></path><path fill="#fff" d="M68.57 50.273a.75.75 0 0 0 0 1.5.75.75 0 0 0 0-1.5M31.07 50.273a.75.75 0 0 0 0 1.5.75.75 0 0 0 0-1.5M48.539 36.553a.75.75 0 0 0 1.06 0l3.75-3.75a.75.75 0 0 0-1.06-1.06l-3.22 3.219-1.72-1.72a.75.75 0 0 0-1.06 1.06z"></path></svg>