<svg xmlns="http://www.w3.org/2000/svg" width="100" height="100" fill="none" class="t-icon t-icon-svg t-icon-g-trends" style="width:100px;height:100px;flex:100px 0 0;fill:transparent;stroke:transparent;"><rect width="98" height="98" x="1" y="1" fill="#fff" rx="49"></rect><rect width="98" height="98" x="1" y="1" stroke="#059A77" stroke-dasharray="6 4" stroke-width="2" rx="49"></rect><circle cx="50" cy="50" r="40" fill="#059A77"></circle><path fill="#fff" d="m33.928 34.612-1.165-.583-.67 1.342 1.085.542v2.537h1.5v-2.537l1.085-.542-.67-1.342zM45.928 34.612l-1.165-.583-.67 1.342 1.085.542v2.537h1.5v-2.537l1.085-.542-.67-1.342zM57.928 34.612l-1.165-.583-.67 1.342 1.085.542v2.537h1.5v-2.537l1.085-.542-.67-1.342z"></path><path fill="#fff" d="M72.024 35.744a.75.75 0 0 0-.703-.287l-5.25.75a.75.75 0 0 0-.517 1.16l1.07 1.603-4.946 3.062v-1.957l1.136-.681a.75.75 0 0 0 .364-.644v-3.975a3.08 3.08 0 0 0-2.032-2.893c.152-.392.232-.81.232-1.232a3.454 3.454 0 0 0-3.45-3.45 3.454 3.454 0 0 0-3.45 3.45c0 .423.08.84.232 1.232a3.08 3.08 0 0 0-2.032 2.893v3.975a.75.75 0 0 0 .364.643l1.136.682v6.6L52.038 48l-2.36-2.361v-5.565l1.136-.68a.75.75 0 0 0 .364-.644v-3.975a3.08 3.08 0 0 0-2.032-2.893c.152-.392.232-.81.232-1.232a3.454 3.454 0 0 0-3.45-3.45 3.454 3.454 0 0 0-3.45 3.45c0 .423.08.84.232 1.232a3.08 3.08 0 0 0-2.032 2.893v3.975a.75.75 0 0 0 .364.643l1.136.682v1.886l-4.5.782v-2.668l1.136-.681a.75.75 0 0 0 .364-.644v-3.975a3.08 3.08 0 0 0-2.032-2.893c.152-.392.232-.81.232-1.232a3.454 3.454 0 0 0-3.45-3.45 3.454 3.454 0 0 0-3.45 3.45c0 .423.08.84.232 1.232a3.08 3.08 0 0 0-2.032 2.893v3.975a.75.75 0 0 0 .364.643l1.136.682v3.972l-2.378.413.256 1.479 16.867-2.934 6.475 6.475a.75.75 0 0 0 .925.108l15.133-9.368 1.098 1.646a.751.751 0 0 0 1.314-.122l2.25-5.25a.75.75 0 0 0-.094-.75M36.178 39.65v3.354l-4.5.782V39.65a.75.75 0 0 0-.364-.643l-1.136-.682v-3.55c0-.87.706-1.575 1.575-1.575h.172a.748.748 0 0 0 .56-1.249 1.94 1.94 0 0 1-.507-1.301c0-1.075.874-1.95 1.95-1.95 1.075 0 1.95.875 1.95 1.95 0 .606-.275 1.042-.507 1.301a.75.75 0 0 0 .56 1.249h.172c.868 0 1.575.706 1.575 1.575v3.55l-1.137.681a.75.75 0 0 0-.363.644m12 0v4.49l-2.47-2.47a.75.75 0 0 0-.658-.209l-1.372.239v-2.05a.75.75 0 0 0-.364-.643l-1.136-.681v-3.551c0-.868.706-1.575 1.575-1.575h.172a.748.748 0 0 0 .56-1.249 1.94 1.94 0 0 1-.507-1.301c0-1.075.874-1.95 1.95-1.95 1.075 0 1.95.875 1.95 1.95 0 .606-.275 1.042-.507 1.301a.75.75 0 0 0 .56 1.249h.172c.868 0 1.575.706 1.575 1.575v3.55l-1.136.681a.75.75 0 0 0-.364.644m12 0v3.31l-4.5 2.786V39.65a.75.75 0 0 0-.364-.643l-1.136-.682v-3.55c0-.869.706-1.575 1.575-1.575h.172a.748.748 0 0 0 .56-1.249 1.94 1.94 0 0 1-.507-1.301c0-1.075.874-1.95 1.95-1.95 1.075 0 1.95.875 1.95 1.95 0 .606-.275 1.042-.507 1.301a.75.75 0 0 0 .56 1.249h.172c.868 0 1.575.706 1.575 1.575v3.55l-1.137.681a.75.75 0 0 0-.363.644m8.856.232-1.572-2.358 2.75-.394zM68.428 57.95a6.757 6.757 0 0 0-6.75-6.75 6.757 6.757 0 0 0-6.75 6.75 6.757 6.757 0 0 0 6.75 6.75 6.757 6.757 0 0 0 6.75-6.75m-12 0a5.257 5.257 0 0 1 5.25-5.25 5.257 5.257 0 0 1 5.25 5.25 5.257 5.257 0 0 1-5.25 5.25 5.257 5.257 0 0 1-5.25-5.25"></path><path fill="#fff" d="m62.268 67.683 1.786 2.682a.747.747 0 0 0 1.022.221l.88-.55 1.078 1.8a.75.75 0 0 0 .644.364.76.76 0 0 0 .386-.107l3.75-2.25a.746.746 0 0 0 .258-1.03l-1.137-1.89.141-.087a.75.75 0 0 0 .245-1.022l-1.501-2.5a9.67 9.67 0 0 0 1.608-5.364c0-5.376-4.374-9.75-9.75-9.75s-9.75 4.374-9.75 9.75 4.374 9.75 9.75 9.75q.313 0 .59-.017m2.63 1.245-.993-1.492a9.8 9.8 0 0 0 4.924-2.858l.827 1.377zm5.5.015-2.462 1.478-.708-1.18 2.435-1.522zM53.428 57.95c0-4.549 3.702-8.25 8.25-8.25 4.55 0 8.25 3.701 8.25 8.25a8.17 8.17 0 0 1-1.6 4.893 8.28 8.28 0 0 1-6.65 3.357c-4.548 0-8.25-3.7-8.25-8.25"></path><path fill="#fff" d="M63.928 57.95h1.5a3.754 3.754 0 0 0-3.75-3.75v1.5c1.24 0 2.25 1.01 2.25 2.25M32.428 47.45h1.5v19.5h-1.5zM39.928 45.95h1.5V64.7h-1.5zM39.928 66.2h1.5v6h-1.5zM32.428 68.45h1.5v3.75h-1.5zM47.428 48.95h1.5V66.2h-1.5zM47.428 67.7h1.5v4.5h-1.5zM54.928 67.7h1.5v4.5h-1.5zM66.178 42.95h1.5v4.5h-1.5z"></path></svg>